<?xml version="1.0"?><svg width="370" height="370" xmlns="http://www.w3.org/2000/svg">
 <title>black basketball</title>

 <metadata id="metadata2500">image/svg+xml</metadata>
 <g>
  <title>Layer 1</title>
  <g id="layer1">
   <g id="g2614" transform="matrix(-1 0 0 1 369.173 0)">
    <path id="path2458" d="m128.414993,122.307999l-23.469193,28.906006c57.198196,41.895996 32.864197,187.625992 96.281204,213.999985c44.873001,-4.410004 84.893997,-25.470001 113.780991,-56.905975c-57.830017,-69.466019 -117.640991,-135.60202 -186.593002,-186.000015z" stroke-dashoffset="0" stroke-miterlimit="4" marker-end="none" marker-mid="none" marker-start="none" stroke-width="1px" fill-rule="evenodd" fill="#605e5e"/>
    <path id="path2460" d="m162.132996,89.807602l-25.280991,25.281395c83.763,71.008003 136.757004,130.49601 182.344009,187.187004l0.75,0.437988c26.264984,-31.078003 42.093994,-71.248993 42.093994,-115.093994c0,-3.544998 -0.109009,-7.067993 -0.313019,-10.561996c-31.714996,-63.998001 -150.866989,-43.020004 -199.593994,-87.250397l0,0z" stroke-dashoffset="0" stroke-miterlimit="4" marker-end="none" marker-mid="none" marker-start="none" stroke-width="1px" fill-rule="evenodd" fill="#605e5e"/>
    <path id="path2462" d="m267.664978,40.745098c-39.814972,0.397903 -90.396973,26.011799 -95.31398,40.6563c1.617996,36.760605 170.603989,25.988403 188.375992,86.656601l0.25,0.031006c-5.585999,-51.196007 -32.841003,-95.909103 -72.405975,-124.750103c-6.461029,-1.87701 -13.548004,-2.667301 -20.906036,-2.593803z" stroke-dashoffset="0" stroke-miterlimit="4" marker-end="none" marker-mid="none" marker-start="none" stroke-width="1px" fill-rule="evenodd" fill="#605e5e"/>
    <path id="path2464" d="m183.602005,9.18261c-8.95401,0 -17.77301,0.662371 -26.375,1.9375c-26.545013,28.734589 -12.380005,54.549103 1.875,62.437492c12.166,8.663795 43.542999,-45.580801 122.219009,-35.2187c-28.080017,-18.426401 -61.64801,-29.156292 -97.719009,-29.156292z" stroke-dashoffset="0" stroke-miterlimit="4" marker-end="none" marker-mid="none" marker-start="none" stroke-width="1px" fill-rule="evenodd" fill="#605e5e"/>
    <path id="path2466" d="m102.258301,160.682999c-1.626503,0.031006 -3.330803,0.358002 -5.125,0.968002c-23.257103,18.248993 -65.801102,106.070007 -40.9375,149.843994c0.005299,0.005005 -0.005199,0.026001 0,0.031006c32.391998,33.029999 77.5242,53.532013 127.406204,53.532013c1.371994,0 2.729996,-0.001007 4.093994,-0.032013c-53.736008,-38.834991 -42.037994,-193.680008 -85.437698,-204.343002z" stroke-dashoffset="0" stroke-miterlimit="4" marker-end="none" marker-mid="none" marker-start="none" stroke-width="1px" fill-rule="evenodd" fill="#605e5e"/>
    <path id="path2468" d="m59.320801,139.151001c-19.535999,0.619995 -42.33444,10.860001 -53.062461,33.125l-0.56254,1.343994c-0.3594,4.622009 -0.5625,9.286011 -0.5625,14c0,44.146011 16.068191,84.554016 42.656301,115.718994c-24.608381,-77.248993 50.266903,-145.168991 42.124989,-152.718994c-5.381592,-7.799988 -17.22699,-11.89299 -30.593788,-11.468994z" stroke-dashoffset="0" stroke-miterlimit="4" marker-end="none" marker-mid="none" marker-start="none" stroke-width="1px" fill-rule="evenodd" fill="#605e5e"/>
    <path id="path2470" d="m53.6646,65.370087c-25.212301,26.784012 -42.27987,61.336914 -47.12501,99.687912c18.96732,-31.720993 47.261512,-43.234001 93.000007,-19.25l23.468407,-29.5c-15.323402,-13.826599 -47.640404,-37.700096 -69.343403,-50.937912z" stroke-dashoffset="0" stroke-miterlimit="4" marker-end="none" marker-mid="none" marker-start="none" stroke-width="1px" fill-rule="evenodd" fill="#605e5e"/>
    <path id="path2472" d="m149.507996,12.43261c-34.956696,6.76811 -66.282692,23.757389 -90.749695,47.718792l0.4375,0.781197c25.737701,11.718914 47.750702,30.929501 70.43721,48.750004l27.062988,-25.281204c-17.632996,-17.784599 -31.237999,-37.202198 -7.188004,-71.968788z" stroke-dashoffset="0" stroke-miterlimit="4" marker-end="none" marker-mid="none" marker-start="none" stroke-width="1px" fill-rule="evenodd" fill="#605e5e"/>
    <path d="m128.414993,122.307999l-23.469193,28.906006c57.198196,41.895996 32.864197,187.625992 96.281204,213.999985c44.873001,-4.410004 84.893997,-25.470001 113.780991,-56.905975c-57.830017,-69.466019 -117.640991,-135.60202 -186.593002,-186.000015z" id="path3332" stroke-dashoffset="0" stroke-miterlimit="4" marker-end="none" marker-mid="none" marker-start="none" stroke-width="1px" fill-rule="evenodd" fill="#605e5e"/>
   </g>
  </g>
 </g>
</svg>