<?xml version="1.0" encoding="utf-8"?>
<!-- Generator: Adobe Illustrator 14.0.0, SVG Export Plug-In . SVG Version: 6.00 Build 43363)  -->
<svg version="1.1"
	 xmlns="http://www.w3.org/2000/svg"  x="0px" y="0px" width="2480px"
	 height="2387.404px" viewBox="0 0 2480 2387.404" enable-background="new 0 0 2480 2387.404" xml:space="preserve">
<path d="M2397.088,329.248c-27.473-9.787,20.994-45.063,21.031-64.821c26.963-33.773,23.225-72.058,19.178-112.318
	c-17.786-45.184-62.988-78.786-106.5-99.98c-172.586-15.06-348.498-30-521.639-7.607c-50.654-0.299-94.603,42.791-144.536,20.648
	c-46.425,11.555-95.918,5.583-144.665,6.521c-52.369,4.807-134.121-7.485-157.45,52.164c2.681,52.505,40.494,105.657,86.939,128.236
	c61.591,34.577,144.725-7.133,197.787,42.383c-99.78-0.43-203.203,3.102-297.768-33.689
	c-197.523-60.905-388.171-150.09-593.573-183.637c-98.854-22.282-196.528,8.083-295.385,8.671
	c-28.051-25.191-57.621-1.439-70.638,26.082c-32.895,15.175-78.563-7.547-116.497-6.47c-62.69-37.601-137.874-8.553-206.267-9.832
	c-45.203,22.404-23.101,87.822-17.868,128.53c12.727,38.013,21.529,74.91-8.213,107.294
	c-12.608,73.601,23.452,149.277,68.465,206.481c10.598,36.329,49.265,47.374,84.919,47.195c95.306-4.597,177.162,49.8,267.186,68
	c26.861,49.724,88.455,52.812,130.41,82.593c61.458,22.724,115.205,62.037,167.358,102.153
	c67.626,29.795,136.586,58.745,205.395,86.939c34.648,66.481,100.188,112.963,169.532,135.844
	c39.744,16.508,8.952,68.054-20.648,71.725c-72.814-6.028-110.243,63.16-131.622,121.445c-9.385,80.322-1.184,185.77,81.632,227.4
	c51.849,41.081,121.716,35.425,176.053,3.26c51.596-36.718,107.655-74.762,143.45-126.062c25.505-9.151,70.283-14.604,82.593,13.041
	c26.228,59.263,92.938,82.757,114.108,145.624c9.086,37.693,53.34,55.891,54.337,93.46c38.396,62.551,61.671,136.193,97.808,201.048
	c7.879,81.963-20.464,170.46,11.954,251.038c-17.54,26.144-6.46,54.353-13.041,83.68c-12.928,27.341,18.808,39.767,8.694,64.117
	c1.929,38.972-32.949,56.706-67.627,56.26c-35.557,21.007-99.109,12.659-112.773,58.936c41.55,1.493,83.792,0.055,123.89,13.041
	c14.96-0.349,29.813,0.212,44.703,1.641c51.289,3.403,140.425,10.027,142.217-61.411c-27.621-12.179-20.697-57.221-10.867-74.986
	c28.373-2.468,19.591-24.819,8.693-40.209c22.583-67.34,22.256-147.52,27.816-220.75c-5.201-79.926,31.745-157.67,14.566-236.77
	c-5.429-61.229-55.85-107.652-47.816-170.619c5.167-107.204-49.499-216.687-4.347-320.59
	c56.17-84.776,107.63-173.739,155.963-263.71c47.029-82.134,83.27-174.076,140.719-248.146
	c40.053-28.793-21.557-43.473-31.516-65.205c-5.469-34.524-56.681-56.277-48.904-88.026c8.197-27.033,79.121-23.531,56.512-56.511
	c30.265-22.656,67.873-33.229,103.24-45.644c60.414-38.491,115.977-96.272,192.354-104.327
	C2434.834,320.829,2409.483,320.689,2397.088,329.248z M1131.54,703.089c-4.936-0.341-9.762,0.46-14.638,1.087
	c-39.328-9.443-79.416-15.468-118.029-27.271c-61.767-29.159-123.096-59.298-185.173-87.924
	c-44.812-9.066-93.522-15.918-127.149-49.99c-53.872-17.898-110.941-22.778-167.358-22.822c-23.886-23.003-60.043-13.594-90.2-13.04
	c-30.403-25.668-72.101-40.08-92.373-76.072c-10.062-9.873-21.78-30.404-36.949-24.995c-6.498,15.356-3.664,36.009,2.148,50.621
	c13.301,11.097,19.932,34.703,1.112,43.926c-27.202,12.863-60.959,12.728-88.026,0c2.841-48.658-0.83-104.078,33.46-143.222
	c15.138-16.891,37.192-24.646,58.913-29.571c-3.422-13.586-8.359-27.064,10.828-24.987c57.696-4.585,117.833-3.166,173.017,15.535
	c13.907,7.035,27.191,13.815,43.285,12.713c104.263,8.577,196.052,65.104,297.768,84.766c24.89,13.405,52.747,21.148,79.33,28.857
	c34.466,27.607,72.888,51.116,108.677,76.557c30.814,4.667,61.567-4.454,92.374-5.434c34.692,27.804,70.341,56.939,113.021,70.639
	c1.111-19.629,24.563-19.465,37.444-11.287c16.563-0.596,14.727,14.7,15.807,26.501c2.099,14.613,24.364,1.309,35.353,5.435
	c20.582,0.846,46.515,3.578,57.021,23.908C1290.838,650.576,1215.918,694.494,1131.54,703.089z"
	fill-rule="evenodd" fill="#605e5e"/>
</svg>
